<svg width="169" height="169" viewBox="0 0 169 169" fill="none" xmlns="http://www.w3.org/2000/svg">
    <g transform="matrix(0.999538,0,0,1.00703,-0.57942,-0.404386)">
        <rect x="0.58" y="0.402" width="169.078" height="167.82" style="fill:rgb(13,71,161);"/>
    </g>
    <g transform="matrix(6.7678,0,0,6.7678,32.6913,29.841)">
        <path
            d="M2,0L2,16L14,16L14,4L13.988,4L13.992,3.992L10.008,0.006L10,0.014L10,0L2,0ZM3,1L9,1L9,5L13,5L13,15L3,15L3,1ZM10,1.412L12.586,4L10,4L10,1.412Z"
            style="fill:white;fill-opacity:0.5;fill-rule:nonzero;"/>
    </g>
    <g transform="matrix(0.11474,0,0,0.11474,40.933,43.0872)">
        <path
            d="M533.357,400C533.357,473.64 473.663,533.333 400.023,533.333C326.388,533.333 266.691,473.64 266.691,400C266.691,326.36 326.388,266.667 400.023,266.667C473.663,266.667 533.357,326.36 533.357,400ZM466.69,400C466.69,363.18 436.843,333.333 400.023,333.333C363.206,333.333 333.358,363.18 333.358,400C333.358,436.82 363.206,466.667 400.023,466.667C436.843,466.667 466.69,436.82 466.69,400Z"
            style="fill:white;fill-rule:nonzero;"/>
        <path
            d="M400.04,133.333C564.219,133.333 703.19,241.251 749.915,390.011C751.957,396.514 751.957,403.486 749.915,409.989C703.19,558.75 564.219,666.667 400.04,666.667C235.858,666.667 96.887,558.749 50.164,409.988C48.122,403.486 48.122,396.514 50.164,390.012C96.888,241.25 235.858,133.333 400.04,133.333ZM400.04,200C269.414,200 158.282,283.475 117.1,400C158.281,516.524 269.414,600 400.04,600C530.664,600 641.797,516.524 682.979,400C641.797,283.476 530.664,200 400.04,200Z"
            style="fill:white;fill-rule:nonzero;"/>
    </g>
</svg>
