<?xml version="1.0" encoding="UTF-8" standalone="no"?>
<!DOCTYPE svg PUBLIC "-//W3C//DTD SVG 1.1//EN" "http://www.w3.org/Graphics/SVG/1.1/DTD/svg11.dtd">
<svg width="100%" height="100%" viewBox="0 0 1165 212" version="1.1" xmlns="http://www.w3.org/2000/svg" xmlns:xlink="http://www.w3.org/1999/xlink" xml:space="preserve" xmlns:serif="http://www.serif.com/" style="fill-rule:evenodd;clip-rule:evenodd;stroke-linecap:round;stroke-linejoin:round;stroke-miterlimit:1.5;">
    <g transform="matrix(1,0,0,1,-74.4449,-136.252)">
        <g transform="matrix(7.49529,0,0,7.49529,860.011,138.113)">
            <path d="M8,0C4.44,0 1.552,5.068 1.504,10L14.496,10C14.448,5.068 11.56,0 8,0ZM1.533,11C1.688,13.12 2.403,14.811 3.476,16L12.523,16C13.596,14.811 14.312,13.12 14.466,11L1.533,11Z" style="fill:rgb(185,185,185);fill-rule:nonzero;"/>
            <path d="M8,1C4.962,1 2.5,5.51 2.5,9.859C2.5,12.076 3.143,13.819 4.172,15L11.827,15C12.857,13.82 13.499,12.076 13.499,9.859C13.5,5.51 11.038,1 8,1Z" style="fill:white;fill-rule:nonzero;"/>
            <path d="M2.5,10L13.5,10L13.45,11L2.55,11L2.5,10Z" style="fill:rgb(255,135,0);fill-rule:nonzero;"/>
            <rect x="7.5" y="6" width="1" height="3" style="fill:rgb(140,140,140);fill-rule:nonzero;"/>
            <path d="M4,7L5,7L5,9L4,9L4,7ZM11,7L12,7L12,9L11,9L11,7Z" style="fill:rgb(185,185,185);fill-rule:nonzero;"/>
            <rect x="7.5" y="10.5" width="1" height="3.5" style="fill:rgb(255,135,0);fill-rule:nonzero;"/>
        </g>
        <g transform="matrix(8.83193,0,0,8.83193,1106.48,127.42)">
            <path d="M8,1L15,6L15,15L1,15L1,6L8,1Z" style="fill:rgb(255,230,187);fill-rule:nonzero;"/>
            <path d="M8,2.2L14,6.5L14,14L2,14L2,6.5L8,2.2M8,1L1,6L1,15L15,15L15,6L8,1Z" style="fill:rgb(232,163,61);fill-rule:nonzero;"/>
            <rect x="3" y="3" width="10" height="10" style="fill:white;fill-rule:nonzero;"/>
            <path d="M12,4L12,12L4,12L4,4L12,4M13,3L3,3L3,13L13,13L13,3Z" style="fill:rgb(102,102,102);fill-rule:nonzero;"/>
            <g transform="matrix(0.00992136,0,0,0.00992136,4.01477,3.41044)">
                <path d="M533.357,400C533.357,473.64 473.663,533.333 400.023,533.333C326.388,533.333 266.691,473.64 266.691,400C266.691,326.36 326.388,266.667 400.023,266.667C473.663,266.667 533.357,326.36 533.357,400ZM466.69,400C466.69,363.18 436.843,333.333 400.023,333.333C363.206,333.333 333.358,363.18 333.358,400C333.358,436.82 363.206,466.667 400.023,466.667C436.843,466.667 466.69,436.82 466.69,400Z" style="fill:rgb(185,185,185);fill-rule:nonzero;"/>
                <path d="M400.04,133.333C564.219,133.333 703.19,241.251 749.915,390.011C751.957,396.514 751.957,403.486 749.915,409.989C703.19,558.75 564.219,666.667 400.04,666.667C235.858,666.667 96.887,558.749 50.164,409.988C48.122,403.486 48.122,396.514 50.164,390.012C96.888,241.25 235.858,133.333 400.04,133.333ZM400.04,200C269.414,200 158.282,283.475 117.1,400C158.281,516.524 269.414,600 400.04,600C530.664,600 641.797,516.524 682.979,400C641.797,283.476 530.664,200 400.04,200Z" style="fill:rgb(185,185,185);fill-rule:nonzero;"/>
            </g>
            <path d="M15,6L15,15L1,15L1,6L8,11L15,6Z" style="fill:rgb(255,200,87);fill-rule:nonzero;"/>
            <path d="M8,11L1,6L1,15L15,15L15,6L8,11ZM2,7.9L5.5,10.4L2,14L2,7.9ZM3.4,14L6.3,11.1L8,12.2L9.6,11L12.5,13.9L3.4,13.9L3.4,14ZM10.5,10.5L14,7.9L14,14L10.5,10.5Z" style="fill:rgb(232,163,61);fill-rule:nonzero;"/>
        </g>
        <g transform="matrix(1,0,0,1,-165.762,-4.73194)">
            <g id="apps-pagetree-page-default--1-.svg" serif:id="apps-pagetree-page-default (1).svg" transform="matrix(7.46395,0,0,7.46395,830.68,202.807)">
                <g transform="matrix(1,0,0,1,-8,-8)">
                    <path d="M2,0L2,16L14,16L14,4L10,0L2,0Z" style="fill:rgb(239,239,239);fill-rule:nonzero;"/>
                    <path d="M10,3.98L10,0L14,4L10,3.98Z" style="fill:white;fill-opacity:0.65;fill-rule:nonzero;"/>
                    <path d="M13,5L13,10L9,5L13,5Z" style="fill:rgb(33,33,33);fill-opacity:0.2;fill-rule:nonzero;"/>
                    <path d="M2,0L2,16L14,16L14,4L13.988,4L13.992,3.992L10.008,0.006L10,0.014L10,0L2,0ZM3,1L9,1L9,5L13,5L13,15L3,15L3,1ZM10,1.412L12.586,4L10,4L10,1.412Z" style="fill:rgb(153,153,153);fill-rule:nonzero;"/>
                </g>
            </g>
            <g id="overlay-edit.svg" transform="matrix(5.84261,0,0,5.84261,844.391,229.334)">
                <g transform="matrix(1,0,0,1,-5.5,-5.5)">
                    <path d="M1,10L1,8L8,1L10,1L10,3L3,10L1,10Z" style="fill:rgb(255,237,207);fill-rule:nonzero;"/>
                    <path d="M2.5,10L1,10L1,8.5L2.5,10Z" style="fill:rgb(51,51,51);fill-rule:nonzero;"/>
                    <path d="M9,4L4,9L2,7L7,2L9,4Z" style="fill:rgb(255,135,0);fill-rule:nonzero;"/>
                    <path d="M8,1L10,3L9,4L7,2L8,1Z" style="fill:rgb(185,185,185);fill-rule:nonzero;"/>
                    <path d="M10,3.2L7.8,1L8.5,0.3C8.7,0.1 9.1,0.1 9.3,0.3L10.7,1.7C10.9,1.9 10.9,2.3 10.7,2.5L10,3.2Z" style="fill:rgb(200,60,60);fill-rule:nonzero;"/>
                    <path d="M10,1L10,3L3,10L1,10L1,8L8,1L10,1M7.6,0L0,7.6L0,11L3.4,11L11,3.4L11,0L7.6,0Z" style="fill:rgb(102,102,102);fill-rule:nonzero;"/>
                </g>
            </g>
        </g>
        <g transform="matrix(1,0,0,1,-252.388,-4.73194)">
            <g id="apps-pagetree-page-default--1-.svg1" serif:id="apps-pagetree-page-default (1).svg" transform="matrix(7.46395,0,0,7.46395,651.229,202.807)">
                <g transform="matrix(1,0,0,1,-8,-8)">
                    <path d="M2,0L2,16L14,16L14,4L10,0L2,0Z" style="fill:rgb(239,239,239);fill-rule:nonzero;"/>
                    <path d="M10,3.98L10,0L14,4L10,3.98Z" style="fill:white;fill-opacity:0.65;fill-rule:nonzero;"/>
                    <path d="M13,5L13,10L9,5L13,5Z" style="fill:rgb(33,33,33);fill-opacity:0.2;fill-rule:nonzero;"/>
                    <path d="M2,0L2,16L14,16L14,4L13.988,4L13.992,3.992L10.008,0.006L10,0.014L10,0L2,0ZM3,1L9,1L9,5L13,5L13,15L3,15L3,1ZM10,1.412L12.586,4L10,4L10,1.412Z" style="fill:rgb(153,153,153);fill-rule:nonzero;"/>
                </g>
            </g>
            <g transform="matrix(0.12544,0,0,0.12544,601.91,154.978)">
                <path d="M533.357,400C533.357,473.64 473.663,533.333 400.023,533.333C326.388,533.333 266.691,473.64 266.691,400C266.691,326.36 326.388,266.667 400.023,266.667C473.663,266.667 533.357,326.36 533.357,400ZM466.69,400C466.69,363.18 436.843,333.333 400.023,333.333C363.206,333.333 333.358,363.18 333.358,400C333.358,436.82 363.206,466.667 400.023,466.667C436.843,466.667 466.69,436.82 466.69,400Z" style="fill-rule:nonzero;"/>
                <path d="M400.04,133.333C564.219,133.333 703.19,241.251 749.915,390.011C751.957,396.514 751.957,403.486 749.915,409.989C703.19,558.75 564.219,666.667 400.04,666.667C235.858,666.667 96.887,558.749 50.164,409.988C48.122,403.486 48.122,396.514 50.164,390.012C96.888,241.25 235.858,133.333 400.04,133.333ZM400.04,200C269.414,200 158.282,283.475 117.1,400C158.281,516.524 269.414,600 400.04,600C530.664,600 641.797,516.524 682.979,400C641.797,283.476 530.664,200 400.04,200Z" style="fill-rule:nonzero;"/>
            </g>
        </g>
        <g transform="matrix(1,0,0,1,-7.50335,-13.4107)">
            <path d="M428.548,258.701L428.129,235.227L432.576,232.806L437.007,237.297L436.073,248.37L441.666,247.927L445.661,248.952L451.329,248.455L452.308,254.238L458.031,251.907L460.556,257.539L460.206,282.247L453.6,288.075L441.391,290.429L432.288,284.971L427.43,280.142L417.655,271.439L412.461,264.572L414.545,259.758L428.273,269.135L428.548,258.701Z" style="fill:white;"/>
            <g transform="matrix(4.10647,0,0,4.10647,405.331,229.124)">
                <path d="M12.5,5C12.302,5 12.115,5.04 11.942,5.11C11.768,4.459 11.174,4.002 10.5,4C10.114,4 9.766,4.15 9.5,4.39C9.227,4.14 8.87,4.001 8.5,4C8.324,4 8.157,4.036 8,4.092L8,2C8,1.177 7.323,0.5 6.5,0.5C5.677,0.5 5,1.177 5,2L5,8.629L3.81,7.439C3.529,7.158 3.148,7 2.75,7C1.928,7.001 1.251,7.678 1.251,8.5C1.251,8.897 1.409,9.279 1.69,9.56L6.286,14.128C7.12,15.012 8.285,15.509 9.5,15.5C11.969,15.5 14,13.469 14,11L14,6.5C14,5.677 13.323,5 12.5,5ZM13,11C13,12.93 11.43,14.5 9.5,14.5C8.545,14.499 7.631,14.105 6.975,13.411L2.396,8.854C2.302,8.76 2.249,8.633 2.249,8.5C2.249,8.225 2.475,7.999 2.75,7.999C2.883,7.999 3.01,8.052 3.104,8.146L6,11.042L6,2C6,1.726 6.226,1.5 6.5,1.5C6.774,1.5 7,1.726 7,2L7,8L8,8L8,5.5C8,5.226 8.226,5 8.5,5C8.774,5 9,5.226 9,5.5L9,8L10,8L10,5.5C10,5.226 10.226,5 10.5,5C10.774,5 11,5.226 11,5.5L11,8L12,8L12,6.5C12,6.226 12.226,6 12.5,6C12.774,6 13,6.226 13,6.5L13,11Z" style="fill-rule:nonzero;"/>
            </g>
        </g>
        <g transform="matrix(7.37689,0,0,7.37689,74.4449,139.06)">
            <path d="M14.5,12.1C12.812,11.618 11.634,10.958 10.46,10.506C10.532,10.738 10.543,10.857 10.4,11C9.2,12.3 6.7,12.2 5.6,11C5.455,10.855 5.482,10.735 5.569,10.495C4.385,10.946 3.201,11.614 1.5,12.1C1.5,12.1 0.1,12.9 0,16L16,16C15.9,12.8 14.5,12.1 14.5,12.1Z" style="fill:rgb(121,165,72);fill-rule:nonzero;"/>
            <path d="M1.097,15C1.311,13.706 1.797,13.157 1.95,13.01C3.052,12.681 3.942,12.286 4.732,11.935L5.001,11.816C5.732,12.521 6.844,12.937 8.018,12.937C9.2,12.937 10.286,12.521 11.001,11.816L11.268,11.934C12.061,12.286 12.956,12.683 14.064,13.013C14.225,13.156 14.702,13.679 14.909,14.999L15,16L16,16C15.9,12.8 14.5,12.1 14.5,12.1C12.812,11.618 11.634,10.958 10.46,10.506C10.532,10.738 10.543,10.857 10.4,11C9.812,11.637 8.912,11.938 8.017,11.938C7.086,11.938 6.161,11.612 5.6,11C5.455,10.855 5.482,10.735 5.569,10.495C4.385,10.946 3.201,11.614 1.5,12.1C1.5,12.1 0.1,12.9 0,16L1,16L1.097,15Z" style="fill:rgb(33,33,33);fill-opacity:0.15;fill-rule:nonzero;"/>
            <path d="M8,9C7.291,9 6.589,8.589 6.003,8.006C5.958,10.428 5.233,10.633 5.6,11C6.7,12.2 9.2,12.3 10.4,11C10.768,10.632 10.122,10.427 10.016,7.986C9.426,8.58 8.717,9 8,9Z" style="fill:rgb(255,200,87);fill-rule:nonzero;"/>
            <path d="M5.251,10.627C5.356,10.584 5.464,10.535 5.569,10.495C5.482,10.735 5.455,10.855 5.6,11C5.732,11.143 5.885,11.269 6.052,11.381L6.353,11.266L6.508,10.833L6.536,10.756C6.664,10.407 6.882,9.799 6.968,8.716C6.611,8.532 6.285,8.292 6.003,8.006C5.975,9.479 5.698,10.127 5.566,10.495C5.462,10.535 5.356,10.584 5.251,10.627ZM9.505,10.799L9.647,11.265L9.945,11.38C10.109,11.269 10.265,11.146 10.4,11C10.542,10.857 10.531,10.738 10.46,10.506L10.462,10.507C10.35,10.139 10.082,9.487 10.017,7.986C9.738,8.271 9.417,8.512 9.065,8.7C9.163,9.732 9.354,10.33 9.466,10.675L9.505,10.799Z" style="fill:rgb(33,33,33);fill-opacity:0.15;fill-rule:nonzero;"/>
            <path d="M8,9C6.3,9 4.6,6.7 4.6,5.1L4.6,2.9C4.6,1.3 6,0 7.6,0L8.4,0C10.1,0 11.4,1.3 11.4,2.9L11.4,5.1C11.4,6.7 9.7,9 8,9Z" style="fill:rgb(255,200,87);fill-rule:nonzero;"/>
            <path d="M8.4,1C9.522,1 10.4,1.835 10.4,2.9L10.4,5.1C10.4,6.219 9.09,8 8,8C6.91,8 5.6,6.219 5.6,5.1L5.6,2.9C5.6,1.888 6.535,1 7.6,1L8.4,1M8.4,0L7.6,0C6,0 4.6,1.3 4.6,2.9L4.6,5.1C4.6,6.7 6.3,9 8,9C9.7,9 11.4,6.7 11.4,5.1L11.4,2.9C11.4,1.3 10.1,0 8.4,0Z" style="fill:rgb(33,33,33);fill-opacity:0.15;fill-rule:nonzero;"/>
        </g>
        <path d="M189.938,199.357C189.11,199.357 188.438,198.684 188.438,197.857C188.438,197.029 189.11,196.357 189.938,199.357ZM189.938,199.357L189.946,196.357L190.691,196.357C191.519,196.357 192.191,197.029 192.191,197.857C192.191,198.684 191.519,199.357 190.691,199.357L189.938,199.357ZM327.013,199.357L326.26,199.357C325.432,199.357 324.76,198.684 324.76,197.857C324.76,197.029 325.432,196.357 326.26,196.357L327.006,196.357L327.013,199.357ZM199.729,199.357C198.902,199.357 198.229,198.684 198.229,197.857C198.229,197.029 198.902,196.357 199.729,196.357L201.236,196.357C202.064,196.357 202.736,197.029 202.736,197.857C202.736,198.684 202.064,199.357 201.236,199.357L199.729,199.357ZM210.274,199.357C209.446,199.357 208.774,198.684 208.774,197.857C208.774,197.029 209.446,196.357 210.274,196.357L211.78,196.357C212.608,196.357 213.28,197.029 213.28,197.857C213.28,198.684 212.608,199.357 211.78,199.357L210.274,199.357ZM220.818,199.357C219.99,199.357 219.318,198.684 219.318,197.857C219.318,197.029 219.99,196.357 220.818,196.357L222.324,196.357C223.152,196.357 223.824,197.029 223.824,197.857C223.824,198.684 223.152,199.357 222.324,199.357L220.818,199.357ZM231.362,199.357C230.534,199.357 229.862,198.684 229.862,197.857C229.862,197.029 230.534,196.357 231.362,196.357L232.868,196.357C233.696,196.357 234.368,197.029 234.368,197.857C234.368,198.684 233.696,199.357 232.868,199.357L231.362,199.357ZM241.906,199.357C241.078,199.357 240.406,198.684 240.406,197.857C240.406,197.029 241.078,196.357 241.906,196.357L243.413,196.357C244.24,196.357 244.913,197.029 244.913,197.857C244.913,198.684 244.24,199.357 243.413,199.357L241.906,199.357ZM252.451,199.357C251.623,199.357 250.951,198.684 250.951,197.857C250.951,197.029 251.623,196.357 252.451,196.357L253.957,196.357C254.785,196.357 255.457,197.029 255.457,197.857C255.457,198.684 254.785,199.357 253.957,199.357L252.451,199.357ZM262.995,199.357C262.167,199.357 261.495,198.684 261.495,197.857C261.495,197.029 262.167,196.357 262.995,196.357L264.501,196.357C265.329,196.357 266.001,197.029 266.001,197.857C266.001,198.684 265.329,199.357 264.501,199.357L262.995,199.357ZM273.539,199.357C272.711,199.357 272.039,198.684 272.039,197.857C272.039,197.029 272.711,196.357 273.539,196.357L275.045,196.357C275.873,196.357 276.545,197.029 276.545,197.857C276.545,198.684 275.873,199.357 275.045,199.357L273.539,199.357ZM284.083,199.357C283.255,199.357 282.583,198.684 282.583,197.857C282.583,197.029 283.255,196.357 284.083,196.357L285.59,196.357C286.417,196.357 287.09,197.029 287.09,197.857C287.09,198.684 286.417,199.357 285.59,199.357L284.083,199.357ZM294.627,199.357C293.8,199.357 293.127,198.684 293.127,197.857C293.127,197.029 293.8,196.357 294.627,196.357L296.134,196.357C296.962,196.357 297.634,197.029 297.634,197.857C297.634,198.684 296.962,199.357 296.134,199.357L294.627,199.357ZM305.172,199.357C304.344,199.357 303.672,198.684 303.672,197.857C303.672,197.029 304.344,196.357 305.172,196.357L306.678,196.357C307.506,196.357 308.178,197.029 308.178,197.857C308.178,198.684 307.506,199.357 306.678,199.357L305.172,199.357ZM315.716,199.357C314.888,199.357 314.216,198.684 314.216,197.857C314.216,197.029 314.888,196.357 315.716,196.357L317.222,196.357C318.05,196.357 318.722,197.029 318.722,197.857C318.722,198.684 318.05,199.357 317.222,199.357L315.716,199.357Z" style="fill:rgb(185,185,185);"/>
        <g transform="matrix(1,0,0,1,276.167,0)">
            <path d="M189.938,199.357L189.946,196.357L190.691,196.357C191.519,196.357 192.191,197.029 192.191,197.857C192.191,198.684 191.519,199.357 190.691,199.357L189.938,199.357ZM189.938,199.357C189.11,199.357 188.438,198.684 188.438,197.857C188.438,197.029 189.11,196.357 189.938,199.357ZM327.013,199.357L326.26,199.357C325.432,199.357 324.76,198.684 324.76,197.857C324.76,197.029 325.432,196.357 326.26,196.357L327.006,196.357L327.013,199.357ZM199.729,199.357C198.902,199.357 198.229,198.684 198.229,197.857C198.229,197.029 198.902,196.357 199.729,196.357L201.236,196.357C202.064,196.357 202.736,197.029 202.736,197.857C202.736,198.684 202.064,199.357 201.236,199.357L199.729,199.357ZM210.274,199.357C209.446,199.357 208.774,198.684 208.774,197.857C208.774,197.029 209.446,196.357 210.274,196.357L211.78,196.357C212.608,196.357 213.28,197.029 213.28,197.857C213.28,198.684 212.608,199.357 211.78,199.357L210.274,199.357ZM220.818,199.357C219.99,199.357 219.318,198.684 219.318,197.857C219.318,197.029 219.99,196.357 220.818,196.357L222.324,196.357C223.152,196.357 223.824,197.029 223.824,197.857C223.824,198.684 223.152,199.357 222.324,199.357L220.818,199.357ZM231.362,199.357C230.534,199.357 229.862,198.684 229.862,197.857C229.862,197.029 230.534,196.357 231.362,196.357L232.868,196.357C233.696,196.357 234.368,197.029 234.368,197.857C234.368,198.684 233.696,199.357 232.868,199.357L231.362,199.357ZM241.906,199.357C241.078,199.357 240.406,198.684 240.406,197.857C240.406,197.029 241.078,196.357 241.906,196.357L243.413,196.357C244.24,196.357 244.913,197.029 244.913,197.857C244.913,198.684 244.24,199.357 243.413,199.357L241.906,199.357ZM252.451,199.357C251.623,199.357 250.951,198.684 250.951,197.857C250.951,197.029 251.623,196.357 252.451,196.357L253.957,196.357C254.785,196.357 255.457,197.029 255.457,197.857C255.457,198.684 254.785,199.357 253.957,199.357L252.451,199.357ZM262.995,199.357C262.167,199.357 261.495,198.684 261.495,197.857C261.495,197.029 262.167,196.357 262.995,196.357L264.501,196.357C265.329,196.357 266.001,197.029 266.001,197.857C266.001,198.684 265.329,199.357 264.501,199.357L262.995,199.357ZM273.539,199.357C272.711,199.357 272.039,198.684 272.039,197.857C272.039,197.029 272.711,196.357 273.539,196.357L275.045,196.357C275.873,196.357 276.545,197.029 276.545,197.857C276.545,198.684 275.873,199.357 275.045,199.357L273.539,199.357ZM284.083,199.357C283.255,199.357 282.583,198.684 282.583,197.857C282.583,197.029 283.255,196.357 284.083,196.357L285.59,196.357C286.417,196.357 287.09,197.029 287.09,197.857C287.09,198.684 286.417,199.357 285.59,199.357L284.083,199.357ZM294.627,199.357C293.8,199.357 293.127,198.684 293.127,197.857C293.127,197.029 293.8,196.357 294.627,196.357L296.134,196.357C296.962,196.357 297.634,197.029 297.634,197.857C297.634,198.684 296.962,199.357 296.134,199.357L294.627,199.357ZM305.172,199.357C304.344,199.357 303.672,198.684 303.672,197.857C303.672,197.029 304.344,196.357 305.172,196.357L306.678,196.357C307.506,196.357 308.178,197.029 308.178,197.857C308.178,198.684 307.506,199.357 306.678,199.357L305.172,199.357ZM315.716,199.357C314.888,199.357 314.216,198.684 314.216,197.857C314.216,197.029 314.888,196.357 315.716,196.357L317.222,196.357C318.05,196.357 318.722,197.029 318.722,197.857C318.722,198.684 318.05,199.357 317.222,199.357L315.716,199.357Z" style="fill:rgb(185,185,185);"/>
        </g>
        <g transform="matrix(1,0,0,1,533.513,0)">
            <path d="M189.938,199.357C189.11,199.357 188.438,198.684 188.438,197.857C188.438,197.029 189.11,196.357 189.938,199.357ZM189.938,199.357L189.946,196.357L190.691,196.357C191.519,196.357 192.191,197.029 192.191,197.857C192.191,198.684 191.519,199.357 190.691,199.357L189.938,199.357ZM327.013,199.357L326.26,199.357C325.432,199.357 324.76,198.684 324.76,197.857C324.76,197.029 325.432,196.357 326.26,196.357L327.006,196.357L327.013,199.357ZM199.729,199.357C198.902,199.357 198.229,198.684 198.229,197.857C198.229,197.029 198.902,196.357 199.729,196.357L201.236,196.357C202.064,196.357 202.736,197.029 202.736,197.857C202.736,198.684 202.064,199.357 201.236,199.357L199.729,199.357ZM210.274,199.357C209.446,199.357 208.774,198.684 208.774,197.857C208.774,197.029 209.446,196.357 210.274,196.357L211.78,196.357C212.608,196.357 213.28,197.029 213.28,197.857C213.28,198.684 212.608,199.357 211.78,199.357L210.274,199.357ZM220.818,199.357C219.99,199.357 219.318,198.684 219.318,197.857C219.318,197.029 219.99,196.357 220.818,196.357L222.324,196.357C223.152,196.357 223.824,197.029 223.824,197.857C223.824,198.684 223.152,199.357 222.324,199.357L220.818,199.357ZM231.362,199.357C230.534,199.357 229.862,198.684 229.862,197.857C229.862,197.029 230.534,196.357 231.362,196.357L232.868,196.357C233.696,196.357 234.368,197.029 234.368,197.857C234.368,198.684 233.696,199.357 232.868,199.357L231.362,199.357ZM241.906,199.357C241.078,199.357 240.406,198.684 240.406,197.857C240.406,197.029 241.078,196.357 241.906,196.357L243.413,196.357C244.24,196.357 244.913,197.029 244.913,197.857C244.913,198.684 244.24,199.357 243.413,199.357L241.906,199.357ZM252.451,199.357C251.623,199.357 250.951,198.684 250.951,197.857C250.951,197.029 251.623,196.357 252.451,196.357L253.957,196.357C254.785,196.357 255.457,197.029 255.457,197.857C255.457,198.684 254.785,199.357 253.957,199.357L252.451,199.357ZM262.995,199.357C262.167,199.357 261.495,198.684 261.495,197.857C261.495,197.029 262.167,196.357 262.995,196.357L264.501,196.357C265.329,196.357 266.001,197.029 266.001,197.857C266.001,198.684 265.329,199.357 264.501,199.357L262.995,199.357ZM273.539,199.357C272.711,199.357 272.039,198.684 272.039,197.857C272.039,197.029 272.711,196.357 273.539,196.357L275.045,196.357C275.873,196.357 276.545,197.029 276.545,197.857C276.545,198.684 275.873,199.357 275.045,199.357L273.539,199.357ZM284.083,199.357C283.255,199.357 282.583,198.684 282.583,197.857C282.583,197.029 283.255,196.357 284.083,196.357L285.59,196.357C286.417,196.357 287.09,197.029 287.09,197.857C287.09,198.684 286.417,199.357 285.59,199.357L284.083,199.357ZM294.627,199.357C293.8,199.357 293.127,198.684 293.127,197.857C293.127,197.029 293.8,196.357 294.627,196.357L296.134,196.357C296.962,196.357 297.634,197.029 297.634,197.857C297.634,198.684 296.962,199.357 296.134,199.357L294.627,199.357ZM305.172,199.357C304.344,199.357 303.672,198.684 303.672,197.857C303.672,197.029 304.344,196.357 305.172,196.357L306.678,196.357C307.506,196.357 308.178,197.029 308.178,197.857C308.178,198.684 307.506,199.357 306.678,199.357L305.172,199.357ZM315.716,199.357C314.888,199.357 314.216,198.684 314.216,197.857C314.216,197.029 314.888,196.357 315.716,196.357L317.222,196.357C318.05,196.357 318.722,197.029 318.722,197.857C318.722,198.684 318.05,199.357 317.222,199.357L315.716,199.357Z" style="fill:rgb(185,185,185);"/>
        </g>
        <g transform="matrix(0.8036,0,0,1,832.186,0)">
            <path d="M189.938,199.357C188.908,199.357 188.072,198.684 188.072,197.857C188.072,197.029 188.908,196.357 189.938,199.357ZM189.938,199.357L189.948,196.357L190.917,196.357C191.948,196.357 192.784,197.029 192.784,197.857C192.784,198.684 191.948,199.357 190.917,199.357L189.938,199.357ZM327.013,199.357L326.034,199.357C325.004,199.357 324.168,198.684 324.168,197.857C324.168,197.029 325.004,196.357 326.034,196.357L327.003,196.357L327.013,199.357ZM202.667,199.357C201.636,199.357 200.8,198.684 200.8,197.857C200.8,197.029 201.636,196.357 202.667,196.357L204.625,196.357C205.655,196.357 206.491,197.029 206.491,197.857C206.491,198.684 205.655,199.357 204.625,199.357L202.667,199.357ZM216.374,199.357C215.344,199.357 214.508,198.684 214.508,197.857C214.508,197.029 215.344,196.357 216.374,196.357L218.332,196.357C219.363,196.357 220.199,197.029 220.199,197.857C220.199,198.684 219.363,199.357 218.332,199.357L216.374,199.357ZM230.082,199.357C229.051,199.357 228.215,198.684 228.215,197.857C228.215,197.029 229.051,196.357 230.082,196.357L232.04,196.357C233.07,196.357 233.907,197.029 233.907,197.857C233.907,198.684 233.07,199.357 232.04,199.357L230.082,199.357ZM243.789,199.357C242.759,199.357 241.922,198.684 241.922,197.857C241.922,197.029 242.759,196.357 243.789,196.357L245.747,196.357C246.777,196.357 247.614,197.029 247.614,197.857C247.614,198.684 246.777,199.357 245.747,199.357L243.789,199.357ZM257.497,199.357C256.467,199.357 255.63,198.684 255.63,197.857C255.63,197.029 256.467,196.357 257.497,196.357L259.455,196.357C260.485,196.357 261.322,197.029 261.322,197.857C261.322,198.684 260.485,199.357 259.455,199.357L257.497,199.357ZM271.204,199.357C270.174,199.357 269.338,198.684 269.338,197.857C269.338,197.029 270.174,196.357 271.204,196.357L273.163,196.357C274.193,196.357 275.029,197.029 275.029,197.857C275.029,198.684 274.193,199.357 273.163,199.357L271.204,199.357ZM284.912,199.357C283.882,199.357 283.045,198.684 283.045,197.857C283.045,197.029 283.882,196.357 284.912,196.357L286.87,196.357C287.9,196.357 288.737,197.029 288.737,197.857C288.737,198.684 287.9,199.357 286.87,199.357L284.912,199.357ZM298.619,199.357C297.589,199.357 296.753,198.684 296.753,197.857C296.753,197.029 297.589,196.357 298.619,196.357L300.578,196.357C301.608,196.357 302.444,197.029 302.444,197.857C302.444,198.684 301.608,199.357 300.578,199.357L298.619,199.357ZM312.327,199.357C311.297,199.357 310.46,198.684 310.46,197.857C310.46,197.029 311.297,196.357 312.327,196.357L314.285,196.357C315.315,196.357 316.152,197.029 316.152,197.857C316.152,198.684 315.315,199.357 314.285,199.357L312.327,199.357Z" style="fill:rgb(185,185,185);"/>
        </g>
        <g transform="matrix(1,0,0,1,-119.203,31.9492)">
            <g transform="matrix(1,0,0,1,-34.5039,-1.39453)">
                <circle cx="287.087" cy="280.793" r="33.354" style="fill:rgb(13,71,161);stroke:rgb(7,43,97);stroke-width:7px;"/>
            </g>
            <g transform="matrix(30,0,0,30,259.377,290.766)">
            </g>
            <text x="245.907px" y="290.766px" style="font-family:'Wotfard-Regular', 'Wotfard';font-size:30px;fill:white;">1</text>
        </g>
        <g transform="matrix(1,0,0,1,149.215,31.9492)">
            <g transform="matrix(1,0,0,1,-34.5039,-1.39453)">
                <circle cx="287.087" cy="280.793" r="33.354" style="fill:rgb(13,71,161);stroke:rgb(7,43,97);stroke-width:7px;"/>
            </g>
            <g transform="matrix(30,0,0,30,261.702,290.766)">
            </g>
            <text x="243.582px" y="290.766px" style="font-family:'Wotfard-Regular', 'Wotfard';font-size:30px;fill:white;">2</text>
        </g>
        <g transform="matrix(1,0,0,1,412.797,31.9492)">
            <g transform="matrix(1,0,0,1,-34.5039,-1.39453)">
                <circle cx="287.087" cy="280.793" r="33.354" style="fill:rgb(13,71,161);stroke:rgb(7,43,97);stroke-width:7px;"/>
            </g>
            <g transform="matrix(30,0,0,30,261.867,290.766)">
            </g>
            <text x="243.417px" y="290.766px" style="font-family:'Wotfard-Regular', 'Wotfard';font-size:30px;fill:white;">3</text>
        </g>
        <g transform="matrix(1,0,0,1,669.379,31.9492)">
            <g transform="matrix(1,0,0,1,-34.5039,-1.39453)">
                <circle cx="287.087" cy="280.793" r="33.354" style="fill:rgb(13,71,161);stroke:rgb(7,43,97);stroke-width:7px;"/>
            </g>
            <g transform="matrix(30,0,0,30,262.287,290.766)">
            </g>
            <text x="242.997px" y="290.766px" style="font-family:'Wotfard-Regular', 'Wotfard';font-size:30px;fill:white;">4</text>
        </g>
        <g transform="matrix(1,0,0,1,922.16,31.9492)">
            <g transform="matrix(1,0,0,1,-34.5039,-1.39453)">
                <circle cx="287.087" cy="280.793" r="33.354" style="fill:rgb(13,71,161);stroke:rgb(7,43,97);stroke-width:7px;"/>
            </g>
            <g transform="matrix(30,0,0,30,261.792,290.766)">
            </g>
            <text x="243.492px" y="290.766px" style="font-family:'Wotfard-Regular', 'Wotfard';font-size:30px;fill:white;">5</text>
        </g>
    </g>
</svg>
